<?xml version="1.0" encoding="UTF-8"?>
<svg id="Capa_1" data-name="Capa 1" xmlns="http://www.w3.org/2000/svg" viewBox="0 0 383 142">
  <defs>
    <style>
      .cls-1 {
        fill: #fab735;
      }

      .cls-2 {
        fill: #dadce0;
      }
    </style>
  </defs>
  <polygon class="cls-1" points="133.25 47.38 140.98 63.04 158.25 65.55 145.75 77.73 148.7 94.94 133.25 86.81 117.8 94.94 120.75 77.73 108.25 65.55 125.52 63.04 133.25 47.38"/>
  <polygon class="cls-2" points="308 47.38 315.73 63.04 333 65.55 320.5 77.73 323.45 94.94 308 86.81 292.55 94.94 295.5 77.73 283 65.55 300.27 63.04 308 47.38"/>
  <polygon class="cls-1" points="249.75 47.38 257.48 63.04 274.75 65.55 262.25 77.73 265.2 94.94 249.75 86.81 234.3 94.94 237.25 77.73 224.75 65.55 242.02 63.04 249.75 47.38"/>
  <polygon class="cls-1" points="191.5 47.38 199.23 63.04 216.5 65.55 204 77.73 206.95 94.94 191.5 86.81 176.05 94.94 179 77.73 166.5 65.55 183.77 63.04 191.5 47.38"/>
  <polygon class="cls-1" points="75 47.38 82.73 63.04 100 65.55 87.5 77.73 90.45 94.94 75 86.81 59.55 94.94 62.5 77.73 50 65.55 67.27 63.04 75 47.38"/>
</svg>