<?xml version="1.0" encoding="UTF-8"?>
<svg id="Capa_2" data-name="Capa 2" xmlns="http://www.w3.org/2000/svg" viewBox="0 0 101.25 52.65">
  <defs>
    <style>
      .cls-1, .cls-2 {
        fill: #9a1e18;
      }

      .cls-3 {
        fill: #1f140f;
      }

      .cls-3, .cls-2 {
        fill-rule: evenodd;
      }
    </style>
  </defs>
  <g id="Capa_1-2" data-name="Capa 1">
    <g>
      <path class="cls-1" d="m67.26,20.54c.67-.06,1.37-.67,1.99-.83.24.07.71.09.95,0,.81-1.13,2.52-1.37,3.81-1.29.68.34,1.11,1.13,1.12,1.88,1.83,3.53-3.09,6.73-2.08,10.31.74.96,2.16,1.79,3.42,1.45.57-.73.89-1.96,1.53-2.64,1.1-.98,2.09-2.05,1.98-3.62-.1-.7-.47-2.06-.83-2.68-.86-.91-2.1-1.89-2.36-3.2-1.79-1.15-3.04-2.59-2.22-4.81.52-1.02,1.61-1.98,1.62-3.2-.04-3.01,1.21-4.2,3.22-6.18.98-.72,1.47-2.13,2.41-2.89-.36-.95.13-2.17.93-2.76.58-.17,1.39-.1,1.96.05,2.5,2.22-.4,5.7-2.03,7.57.04.42-.08,1.11-.39,1.42-.18.6-.44,1.45-1.07,1.73.05.72.18,1.62.05,2.35-.16.18-.5.54-.68.71l.13.39c1.08.11,1.96,1.15,2.61,1.93l.07,1.1c.24.24.82.54,1.15.63.55.26,1.08.87,1.42,1.35.26.84.04,1.92.37,2.76,1.94,1.69,3.25,3.75,2.54,6.4l-.71.81c-1.6.44-3.31,1.68-4.84,2.34-.55.45-1.19,1.53-1.33,2.23-1.36,1.5-2.8,2.93-5,2.57l-.75-.58h-1.45c-1.27-.86-3.04-2.04-4.5-2.57-.98-.28-2.79-1.09-3.59-1.73-1.99-2.03-2.53-5.25-2.74-7.96-.28-1.35-.95-3.13-.47-4.5l.67-.79.68-.1c.82.56,1.59,1.77,2.41,2.33Zm23.29-3.94l-.68.81c-.07.47.08,1.29.34,1.69l.57.3c.62-.38,1.54-.96,1.9-1.62-.07-.43-.53-1.14-.81-1.46l-.74-.17-.57.44Zm2.57-1.86c-.31.86-.99.83-.44,2.06.34.72.06.29,1,.37,1.55.06,1.04-.51,1.64-1.25,1.89-1.38,4.68-2.04,5.92-4.2v-1.25c-.84-1.47-1.7-2.44-3.52-1.93-.87.61-1.69,2-2.1,2.96-.61,1.05-1.64,2.38-2.5,3.24Zm.38,10.4c.09.26.33.8.44,1.05.9.17,1.88-.5,2.71-.75.86.12,1.93-.18,2.57-.78l-.14-.48.14-.4c.19.11.8.13,1.01.13l.78-.61c.03-.43.04-1.3,0-1.73-2.36-2.41-3.73-.32-5.28,1.59-.96.19-1.97,1-2.24,1.96Zm-6.3-10.94l1.01-.61c.28-.53,1.01-1.44,1.05-2.04-.62-.6.5-.9.84-.53,1.07-.42,2.17-1.37,2.85-2.3.03-.35.23-.95.54-1.15h.68c1.29-.79,2.46-1.87,2.51-3.49-.14-.46-.52-1.33-.92-1.63-.96-.09-2.22.23-2.81,1.05-1.6,1.31-3.02,2.86-4.42,4.4-.71.62-.62.77-1.3,1.52-1.35,1.01-2.41,1.91-2.14,3.62.18.41.69.99,1.12,1.15h.98m-23.46-7.01c-.14.39-.39,1.35-.49,1.76-.24,1.83-.51,4.84,1.1,6.08.63.23,1.37-.03,1.72-.6.3-.96-.67-2.05-.29-2.98,1.17-.79,1.3-1.95.46-3.05-.53-.69-1.25-1.55-2.23-1.42l-.28.2"/>
      <path class="cls-2" d="m45.05,41.56c-14.66,0-29.32,0-43.97,0-.19,0-.39,0-.57-.03-.3-.05-.49-.29-.5-.58,0-.31.17-.57.48-.63.2-.04.4-.05.61-.05h87.75c.23,0,.45,0,.67.02.39.04.62.3.61.65,0,.34-.25.57-.62.61-.16.02-.32.01-.48.01h-43.97Z"/>
      <path class="cls-3" d="m7.3,30.57c-5.97,6.55-3.71-7.86.78-4.39,2.48-1.65-.27,4.48,1.22,4.64,1.84.2,1.41-3.6,1.27-5.21-.25-2.86-5.07-1.86-6.5.22-2.93,4.25-1.9,12.64,4.16,8.43,1.69-1.18,2.69.42,1.02,1.53-4.83,3.2-9.54-1.15-8.07-7,1.31-5.21,7.78-9.45,10.76-3.32,1.49,3.06-2.89,11.09-4.64,5.1Zm.16-2.94c-1.39-2.05-3,2.64-1.96,2.82,1.12.2,2.58-1.91,1.96-2.82Z"/>
      <path class="cls-3" d="m20.18,27.6c.93-1.65,3.51-3.2,4.77-1.05.12.21.21.22.38.05,5.75-4.63,5.35,3.61,5.49,7.31.27,1.71-2.55,2.13-2.59.38-.06-2.15,1.06-10.79-2.74-5.96-.32,2.14,1.6,6.32-.83,7.3-3.54.61.9-9.74-3-8.15-3.26,2.06.69,6.61-1.38,8.28-3.3.69-2.35-6.23-2.8-8.52-.38-1.94,2.76-1.57,2.68.36Z"/>
      <path class="cls-3" d="m45.41,27.56c2.23-3.67,6.06-2,5.78,2.19-.12,1.84,2.3,6.8-1.25,5.46-.94-.35-.58-5.17-1.45-7.6-1.98-1.94-3.46,3.04-3,4.77.21.78.24,1.6.33,2.41.2,1.68-2.58,1.23-2.43-.25.22-2.21-2.61-8.49.91-8.42.69.07,1.1,1.44,1.1,1.44Z"/>
      <path class="cls-3" d="m61.65,30.32c-.07,2.2-.96,3.85-2.86,4.96-1.69.99-3.83.5-4.75-1.09-.48-.83-.65-1.76-.6-2.71.1-2.04.85-3.81,2.26-5.29.22-.23.43-.47.67-.68.11-.09,2.09-.01,2.85.38,1.01.52,1.69,1.32,2.11,2.36.27.66.35,1.35.33,2.07Zm-2.39.31c.01-.76-.15-1.64-.52-2.47-.12-.27-.28-.53-.47-.75-.32-.36-.62-.36-.96-.01-.17.17-.32.37-.45.58-.64,1.06-.9,2.23-.91,3.45,0,.72.04,1.43.4,2.08.32.6.96.8,1.5.44.19-.13.37-.29.52-.47.64-.79.89-1.71.88-2.85Z"/>
      <path class="cls-3" d="m37.95,34.17c-3.75,3.3-7.3,1.03-3.4-3.21.78-.85,3.6-2.08,3.13-3.09-.42-1.68-2.25-.69-3.1.06-.46.36-.83.37-1.22-.1-.91-1.56,1.69-2.15,2.69-2.61,3.91-1.77,6.27,11,2.6,10.35-.71-.12-.69-1.41-.69-1.41Zm.16-2.77s-3.29.89-3.13,2.02c.55,1.75,3.69-.66,3.13-2.02Z"/>
      <path class="cls-3" d="m34.49,47.01c.3-.22.55-.42.83-.58.32-.18.63-.07.87.18.18.19.27.14.47.03.29-.17.62-.26.95-.34.3-.07.56.08.64.36.13.48.23.97.28,1.46.06.51.05,1.03.07,1.54,0,.36-.2.56-.54.56-.32,0-.47-.18-.46-.55,0-.71.02-1.43.01-2.15,0-.42-.13-.6-.38-.59-.32.01-.71.41-.69.72.04.69.09,1.39.13,2.08.02.28-.1.47-.37.56-.38.12-.63-.07-.63-.46,0-.64.04-1.28.02-1.92,0-.24-.08-.48-.16-.71-.07-.19-.23-.24-.41-.1-.37.28-.62.65-.59,1.11.03.54.15,1.07.24,1.61.06.42-.27.71-.66.54-.12-.05-.27-.21-.29-.33-.14-.98-.26-1.97-.38-2.95-.04-.3.13-.46.39-.54.25-.07.43.05.55.27l.12.21Z"/>
      <path class="cls-3" d="m58.19,49.7c-.5.36-1.01.4-1.53.34-.61-.07-1.12-.47-1.24-1.04-.1-.47.07-.91.33-1.3.39-.59.95-.98,1.61-1.2.32-.1.38-.25.32-.56-.08-.4-.11-.8-.14-1.21-.03-.35.16-.53.55-.55.34-.01.48.14.5.5.06,1.12.1,2.24.2,3.36.06.68.23,1.34.32,2.02.01.12-.09.36-.17.38-.18.04-.39,0-.57-.06-.06-.02-.1-.18-.12-.28-.03-.1-.03-.21-.06-.4Zm-.23-.84c-.05-.56-.1-1.04-.14-1.52-.02-.2-.08-.27-.31-.2-.9.28-1.13,1.1-.95,1.86.08.36.44.55.79.48.35-.06.62-.38.61-.62Z"/>
      <path class="cls-3" d="m88.6,46.44c.62-.24,1.16.08,1.24.75.1.85.14,1.7.19,2.55.02.33-.24.52-.61.51-.32-.01-.45-.16-.44-.53,0-.6.03-1.2.01-1.79,0-.23-.05-.47-.11-.69-.08-.26-.22-.31-.46-.17-.51.32-.73.81-.73,1.38,0,.45.09.89.14,1.34.05.42-.03.58-.31.62-.32.04-.56-.14-.61-.5-.11-.87-.21-1.73-.3-2.61-.03-.27-.04-.55.3-.66.3-.1.49,0,.72.35,0,0,.65-.41.97-.54Z"/>
      <path class="cls-3" d="m50.83,48.63c.04-.21.07-.31.08-.42.04-.47.06-.94.1-1.4.02-.34.28-.54.62-.49.29.04.43.26.36.6-.28,1.2-.47,2.41-.48,3.64,0,.45.08.91.15,1.36.09.52-.24.86-.73.68-.13-.05-.26-.29-.26-.45-.04-.66-.04-1.32-.01-1.98,0-.27-.02-.5-.19-.71-.34-.43-.68-.85-1-1.29-.13-.18-.26-.38-.29-.59-.02-.14.09-.34.21-.44.17-.14.37-.05.5.12.24.31.45.65.68.97.07.11.15.22.28.41Z"/>
      <path class="cls-3" d="m69.8,48.24c0,.92-.57,1.74-1.42,2.05-.78.29-1.61-.17-1.75-.99-.2-1.17.58-2.69,1.34-2.99,1.07-.43,1.76.68,1.83,1.93Zm-2.25.53c.02.13.04.36.11.57.16.45.47.5.8.15.49-.53.5-1.78.02-2.33-.16-.19-.31-.16-.44.02-.34.44-.45.96-.48,1.59Z"/>
      <path class="cls-3" d="m85.84,48.23c0,.94-.56,1.77-1.43,2.07-.76.27-1.55-.17-1.72-.97-.2-.91.04-1.72.59-2.44.18-.23.44-.53.69-.56.44-.04.91.09,1.27.43.43.4.59.9.6,1.47Zm-.94-.07c-.08-.2-.19-.6-.36-.97-.1-.22-.31-.22-.46-.01-.48.68-.6,1.43-.35,2.22.12.37.42.42.7.16.35-.32.44-.74.46-1.4Z"/>
      <path class="cls-3" d="m29.36,48.11c0,.96-.37,1.59-1.06,2.02-.95.58-1.96.1-2.14-.99-.13-.8.12-1.51.56-2.14.2-.28.51-.64.78-.66.56-.04,1.11.16,1.48.67.27.37.39.78.37,1.1Zm-2.23.64c.02.12,0,.32.07.47.09.19.25.44.41.47.16.02.4-.17.52-.33.4-.52.35-1.65-.05-2.17-.16-.21-.3-.21-.46-.01-.35.45-.47.96-.49,1.58Z"/>
      <path class="cls-3" d="m75.63,49.86c-.39.15-1.35.45-1.35.45-.57.02-.79-.25-.66-.8.14-.58.57-.93,1-1.29.24-.2.49-.38.74-.56.14-.1.27-.19.17-.39-.1-.2-.23-.41-.48-.33-.24.08-.47.2-.67.36-.21.17-.37.16-.52-.03-.14-.18-.1-.39.11-.49.39-.18.77-.37,1.18-.46.55-.12.91.13,1.15.77.32.86.43,1.76.27,2.68-.05.29-.12.53-.46.55-.33.02-.45-.19-.48-.45Zm-.03-1.67c-.45.28-.86.58-1.08,1.08-.11.25.07.46.34.41.64-.12,1.02-.84.75-1.49Z"/>
      <path class="cls-3" d="m40.18,50.27c-.31.09-.66.11-.86-.17-.22-.3-.09-.64.07-.94.36-.65.98-1.03,1.54-1.46.18-.14.33-.25.2-.49-.13-.24-.33-.35-.58-.24-.2.09-.4.21-.57.35-.18.15-.33.13-.47-.03-.15-.16-.15-.35.04-.47.48-.31.99-.6,1.58-.5.24.04.54.27.65.49.54,1.01.59,2.1.36,3.21-.03.12-.27.31-.42.32-.13,0-.28-.31-.37-.45-.02-.03-.8.28-1.16.39Zm1.08-2.04c-.37.11-.98.67-1.09,1-.1.27.04.48.29.45.64-.07,1.07-.84.8-1.45Z"/>
      <path class="cls-3" d="m24.75,46.08c.01.56.02.56.56.39.17-.05.4-.19.49.09.09.28-.1.39-.34.47-.59.17-.58.18-.48.79.12.75.23,1.5.35,2.24.04.26-.12.48-.36.52-.27.05-.56-.1-.61-.34-.06-.27-.09-.55-.12-.82-.07-.59-.14-1.18-.2-1.78-.02-.21-.1-.32-.33-.35-.12-.01-.31-.1-.32-.24-.02-.14.16-.27.27-.3.21-.07.25-.19.23-.38-.04-.53.04-1.04.35-1.49.36-.52,1-.77,1.57-.59.33.1.49.36.37.62-.09.2-.25.26-.42.14-.18-.12-.37-.3-.57-.13-.18.16-.35.38-.4.62-.03.12-.03.54-.03.54Z"/>
      <path class="cls-3" d="m43.39,48.49c-.39.01-.61-.24-.55-.64.08-.5.89-1.42,1.39-1.55.51-.13,1.03.25,1.01.77,0,.13-.13.32-.25.36-.13.05-.35,0-.45-.1-.33-.28-.51-.28-.73.06-.15.22-.08.35.19.38.35.03.71.02,1.04.1.79.18,1.17.86.92,1.54-.32.84-1.75,1.26-2.47.73-.38-.28-.33-1.03.11-1.22.14-.06.38,0,.52.08.18.1.13.29,0,.45-.14.18-.08.31.14.33.2,0,.41,0,.59-.07.45-.19.5-.78.06-1.02-.32-.17-.46-.2-.83-.24-.17-.02-.55.04-.69.04Z"/>
      <path class="cls-3" d="m22.78,47.33c-.02.23-.23.41-.4.54-.3.22-.66.38-.98.59-.29.18-.26.81.06.94.1.04.28-.01.37-.09.25-.21.46-.45.69-.67.3-.29.56-.38.68-.2.22.32-.06.51-.25.67-.43.37-.89.73-1.36,1.07-.36.25-.7.17-.91-.22-.11-.19-.18-.41-.24-.62-.06-.2-.15-.31-.3-.53-.06-.08-.02-.31.02-.4.1-.23.2-.37.23-.6.05-.36.14-.71.26-1.05.17-.47.33-.54.83-.47.43.06.79.25,1.07.58.1.12.25.26.23.48Zm-1.62.42s.07.09.11.09c.21,0,.42-.15.57-.3.04-.04.11-.16.1-.22-.01-.15-.18-.3-.33-.31-.07,0-.21.05-.25.1-.15.17-.26.43-.2.65Z"/>
      <path class="cls-3" d="m62.27,47.36c-.03.22-.25.4-.43.53-.31.23-.67.38-.98.59-.11.08-.2.27-.17.39.04.19.16.38.3.53.04.04.26-.03.36-.11.24-.21.45-.46.68-.67.19-.17.41-.43.65-.18.26.26-.02.48-.2.64-.45.38-.91.74-1.38,1.08-.37.26-.71.17-.93-.23-.09-.17-.16-.35-.21-.53-.07-.23-.15-.35-.33-.62-.06-.08,0-.31.03-.4.11-.23.21-.37.25-.59.04-.33.11-.65.21-.96.18-.55.34-.62.9-.54.43.06.79.27,1.05.6.09.11.24.24.21.47Zm-1.21-.45c-.16,0-.3.21-.32.28-.06.21-.2.43-.04.57.14.12.37-.09.54-.18.09-.05.22-.23.19-.28-.07-.14-.16-.39-.36-.39Z"/>
      <path class="cls-3" d="m18.14,46.93c.21-.08.34-.31.54-.39.62-.27,1.12.1,1.08.78-.01.23-.12.42-.36.46-.23.03-.37-.09-.44-.32-.09-.31-.27-.35-.52-.13-.35.31-.58.65-.42,1.17.13.44.16.9.25,1.35.06.26.04.47-.26.55-.33.09-.62-.03-.68-.35-.09-.41-.14-.84-.2-1.26-.06-.47-.12-.95-.17-1.43-.02-.13-.03-.28,0-.41.04-.26.21-.42.49-.4.25.02.43.12.43.41,0,0,.2,0,.26-.02Z"/>
      <path class="cls-3" d="m31.28,46.95c.19-.09.31-.3.49-.39.27-.13.58-.18.85.01.28.2.31.52.26.81-.03.15-.2.33-.35.38-.2.07-.35-.07-.42-.29-.12-.35-.28-.38-.55-.13-.32.29-.54.59-.4,1.08.13.47.17.96.27,1.44.05.23.03.42-.21.5-.24.09-.49.1-.66-.14-.07-.1-.11-.23-.13-.35-.11-.82-.22-1.65-.32-2.47-.02-.13-.02-.26-.01-.38.02-.3.19-.48.46-.47.28,0,.48.12.46.44,0,0,.2,0,.26-.03Z"/>
      <path class="cls-3" d="m71.51,47.11l.24-.22c.15-.12.29-.26.46-.34.28-.13.59-.18.85.02.28.21.29.55.23.85-.03.14-.22.32-.35.33-.12,0-.32-.15-.39-.28-.18-.36-.29-.39-.59-.13-.34.3-.52.65-.4,1.13.11.44.17.9.28,1.35.08.33,0,.49-.28.57-.33.08-.6-.04-.66-.33-.05-.19-.09-.4-.11-.6-.09-.82-.2-1.63-.25-2.45-.03-.41.41-.64.73-.39.12.09.15.29.24.49Z"/>
      <path class="cls-3" d="m78.44,50.22c-.79,0-1.21-.44-1.16-1.14.07-1.05.56-1.86,1.41-2.46.09-.06.18-.11.28-.16.23-.11.44-.09.58.14.12.21,0,.51-.27.59-.73.21-1.16,1.32-1.06,2.04.04.26.23.39.46.32.28-.09.54-.25.8-.39l.24-.21c.18-.13.38-.15.55.02.19.19.06.37-.09.5-.51.48-1.15.68-1.74.75Z"/>
      <path class="cls-3" d="m63.17,48.95c.05-1,.62-1.84,1.57-2.45.19-.12.44-.21.61,0,.08.11.08.32.04.47-.02.1-.17.19-.28.23-.75.24-1.11,1.39-1.02,2,.04.26.22.42.48.34.28-.09.96-.59,1.06-.61.17-.03.39-.03.52.05.19.12.08.32-.05.44-.62.56-1.35.88-2.19.74-.53-.08-.75-.46-.74-1.22Z"/>
      <path class="cls-3" d="m80.88,47.84c-.02-.45-.05-.21-.05-.66,0-.29.12-.49.42-.56.37-.09.55.08.56.46.01.84.04,1.68.06,2.53,0,.1.01.19,0,.29-.02.33-.21.52-.49.51-.28,0-.44-.18-.45-.51,0-.46,0-.92,0-1.38,0,0-.04-.51-.05-.69Z"/>
      <path class="cls-3" d="m85.13,44.65c.13.39-.69,1.06-1.02,1.05-.11,0-.27-.08-.3-.19-.02-.07,0-.22.03-.28.15-.32.39-.61.68-.79.08-.05.27-.08.36-.07.14.02.23.2.25.28Z"/>
      <path class="cls-3" d="m81.22,45.98c-.18-.02-.41-.02-.44-.31-.02-.23.23-.42.54-.41.23,0,.46.03.49.34.02.24-.2.38-.59.38Z"/>
    </g>
  </g>
</svg>