<?xml version="1.0" encoding="UTF-8"?>
<svg id="Capa_1" data-name="Capa 1" xmlns="http://www.w3.org/2000/svg" viewBox="0 0 250 100">
  <defs>
    <style>
      .cls-1, .cls-2 {
        fill-rule: evenodd;
      }

      .cls-1, .cls-3 {
        fill: #933;
      }

      .cls-2 {
        fill: #fff;
      }
    </style>
  </defs>
  <path class="cls-1" d="m124.97,69.94c-39.73,0-79.46,0-119.2,0-.52,0-1.05,0-1.56-.09-.81-.13-1.33-.77-1.36-1.57-.03-.85.46-1.55,1.29-1.71.53-.11,1.09-.12,1.64-.12,41.21,0,82.42,0,123.63,0,38.08,0,76.16,0,114.24,0,.61,0,1.22-.01,1.82.05,1.05.11,1.69.81,1.66,1.76-.03.91-.67,1.55-1.68,1.65-.43.04-.87.03-1.3.03-39.73,0-79.46,0-119.2,0Z"/>
  <g>
    <path class="cls-2" d="m22.63,40.15c-.49.63-.78,1.05-1.12,1.43-1.31,1.49-2.86,2.58-4.86,2.99-1.54.32-3.19-.59-3.75-2.07-.8-2.11-.45-4.17.25-6.18.6-1.71,1.29-3.41,2.11-5.03,1.34-2.67,3.47-4.36,6.54-4.68,1.07-.11,1.94.21,2.52,1.17.09.14.23.25.42.44.21-.19.4-.34.57-.51.59-.61,1.26-.68,1.97-.27.7.4.94.97.77,1.82-.65,3.33-1.14,6.68-.61,10.08.08.51.4.98.6,1.47.47-.29,1.06-.48,1.39-.88,1.01-1.23,1.52-2.72,1.78-4.28.46-2.75.73-5.5.37-8.29-.27-2.05-1.45-4.23-4.62-4.81-2.13-.39-4.24-.47-6.38-.06-2.99.57-5.07,2.35-6.73,4.79-2.2,3.23-3.97,6.67-4.89,10.47-.91,3.74-.86,7.45,1.17,10.92,1.65,2.81,5.79,4.67,8.99,4.03,2.19-.44,4.15-1.35,6.01-2.58.91-.6,2.03-.97,3.11-1.24,1.15-.29,2.33,1.09,2.04,2.25-.34,1.39-1.1,2.4-2.39,3.13-3.51,2-7.22,3.32-11.28,3.25-5.63-.11-10.21-3.08-12.51-8.71-1.68-4.1-1.5-8.17-.13-12.29,1.45-4.39,3.41-8.54,6.13-12.27,2.83-3.87,6.89-5.7,11.54-6.36,2.24-.32,4.47-.43,6.73-.03,4.1.73,7.18,2.87,8.07,7.07,1.26,5.92.41,11.57-3.14,16.63-1.38,1.97-3.24,3.36-5.61,3.99-1.79.48-3.02.04-3.83-1.6-.44-.89-.64-1.9-.95-2.86-.07-.23-.14-.46-.29-.93Zm.44-7.98c-.35-.61-.56-1.4-1.03-1.62-.42-.2-1.16.17-1.72.38-.24.09-.44.37-.61.6-1.47,2.11-2.15,4.52-2.57,7.01-.09.53-.01,1.17.61,1.27.39.06,1.01-.15,1.25-.45.98-1.28,1.94-2.59,2.75-3.98.56-.95.86-2.06,1.33-3.2Z"/>
    <path class="cls-2" d="m57.56,32.1c.38-.49.6-.74.79-1.02,1.42-2.05,3.21-3.65,5.62-4.43,2.58-.83,5.18.22,6.52,2.6.32.57.58.59,1.04.13,2.28-2.28,5.14-3.24,8.26-3.59,1.59-.18,2.73.57,3.64,1.77,1.43,1.86,1.99,4.04,2.13,6.31.32,5.11.57,10.22.85,15.33.17,3.09-2.48,4.94-5.37,3.74-1.23-.51-1.64-1.52-1.66-2.71-.03-1.67.05-3.35.07-5.02.05-3.76.13-7.52.09-11.27-.01-.92-.37-1.87-.73-2.74-.36-.87-1.18-1.13-2.1-.95-1.94.37-3.28,1.63-4.53,3.03-.17.19-.24.53-.23.8.18,2.8.43,5.59.56,8.39.13,2.77.19,5.55.21,8.32.01,1.71-1.26,2.94-3.03,3.07-.43.03-.87.03-1.3,0-1.7-.13-2.48-1.02-2.45-2.72.07-5,.2-10,.15-15-.01-1.29-.42-2.63-.89-3.85-.66-1.71-2.1-1.88-3.64-.53-2.53,2.22-4.01,4.95-3.66,8.39.23,2.35.65,4.69,1.02,7.02.21,1.31.53,2.61.74,3.92.29,1.81-.09,2.44-1.81,3.11-1.04.41-2.09.34-3.15,0-1.63-.52-1.74-1.96-1.91-3.29-.56-4.48-1.02-8.97-1.57-13.44-.26-2.12-.67-4.23-.95-6.35-.26-1.94,1.98-3.91,3.91-3.63,1.73.25,2.6,1.22,2.9,2.85.09.5.25.98.46,1.75Z"/>
    <path class="cls-2" d="m125.96,32c.16-.3.27-.64.48-.9,1.9-2.39,4.25-4.08,7.32-4.58,3.17-.52,5.42.85,6.64,3.83,1,2.45,1.07,5.02,1.24,7.58.25,3.84.41,7.68.66,11.51.1,1.62-.45,2.85-1.88,3.6-1.56.82-3.12.78-4.57-.31-.65-.48-.92-1.16-.9-1.97.1-4.19.3-8.37.24-12.56-.03-2.03-.47-4.06-.87-6.06-.27-1.34-1.23-1.76-2.51-1.26-2.04.8-3.39,2.35-4.41,4.23-1.73,3.16-1.69,6.54-1.22,9.97.3,2.18.65,4.35.91,6.53.27,2.33-1.69,3.55-4.17,2.69-1.63-.56-2.22-1.84-2.42-3.39-.4-3.24-.77-6.49-1.14-9.74-.31-2.73-.64-5.46-.91-8.19-.13-1.27-.19-2.56.6-3.69.98-1.4,2.45-1.39,3.92-1.21,1.2.14,1.85.98,2.18,2.09.15.51.28,1.03.42,1.55.13.09.26.18.39.26Z"/>
    <path class="cls-2" d="m169.99,39.49c.03,5.98-2.61,10.44-7.76,13.46-4.57,2.67-10.37,1.36-12.87-2.95-1.31-2.26-1.77-4.76-1.64-7.35.27-5.53,2.3-10.33,6.13-14.34.6-.63,1.17-1.28,1.82-1.84.3-.26.81-.52,1.15-.44,2.19.48,4.5.41,6.56,1.47,2.73,1.4,4.57,3.57,5.72,6.38.74,1.8,1.02,3.67.88,5.63Zm-6.48.84c.03-2.07-.4-4.45-1.42-6.69-.33-.73-.76-1.44-1.28-2.04-.86-.98-1.68-.97-2.6-.04-.46.47-.86,1.02-1.2,1.58-1.73,2.87-2.44,6.04-2.46,9.36-.01,1.94.12,3.88,1.08,5.65.88,1.63,2.6,2.17,4.08,1.19.52-.35,1.01-.79,1.41-1.27,1.74-2.13,2.43-4.62,2.4-7.73Z"/>
    <path class="cls-2" d="m105.74,49.9c-.21.13-.43.24-.61.4-2.76,2.46-6.01,3.59-9.69,3.58-3.17-.02-4.69-1.92-3.96-4.99.13-.53.26-1.07.46-1.58.94-2.48,2.62-4.43,4.6-6.11,2.2-1.87,4.5-3.63,6.76-5.43.29-.23.6-.46.92-.64,1.4-.8,1.37-.48.79-2.29-.38-1.18-1.01-2.31-2.38-2.51-.73-.1-1.61-.02-2.25.3-1.33.67-2.63,1.45-3.79,2.37-1.24.99-2.23,1-3.32-.27-.91-1.07-.81-2.48.41-3.23,1.4-.85,2.89-1.57,4.4-2.21,1.16-.5,2.41-.8,3.62-1.19,3.42-1.09,6.05.59,7.62,3.5,1.5,2.77,2.37,5.76,2.78,8.87.55,4.09.73,8.18-.06,12.26-.12.62-.31,1.23-.46,1.85-.01.06-.04.11-.06.16-.47.88-2.51,1.39-3.91.98-1.3-.38-1.86-1.18-1.76-2.51.03-.39.07-.78.1-1.17-.08-.05-.15-.09-.22-.14Zm.44-7.51s-.07,0-.1,0c0-.95.01-1.91,0-2.86-.01-.57-.3-.9-.82-.48-1.95,1.58-3.94,3.12-5.76,4.84-1.09,1.02-1.87,2.35-1.79,3.99.05,1.14.65,1.75,1.8,1.7,1.2-.04,2.23-.53,3.17-1.25,1-.78,2.03-1.51,3-2.32.26-.22.45-.66.48-1.02.07-.86.02-1.73.02-2.6Z"/>
  </g>
  <g>
    <path class="cls-2" d="m96.35,84.72c.82-.58,1.5-1.15,2.26-1.58.87-.49,1.73-.2,2.36.49.47.51.73.39,1.28.08.78-.45,1.68-.71,2.56-.93.81-.2,1.52.22,1.73.97.36,1.29.62,2.63.77,3.97.15,1.38.15,2.77.18,4.16.02.98-.54,1.53-1.47,1.52-.86-.01-1.27-.48-1.26-1.48,0-1.94.05-3.88.04-5.82,0-1.14-.35-1.64-1.02-1.61-.86.03-1.91,1.12-1.86,1.94.12,1.88.25,3.75.36,5.63.05.75-.27,1.29-1.01,1.52-1.03.32-1.71-.18-1.7-1.25.02-1.74.1-3.47.06-5.21-.01-.64-.22-1.3-.45-1.91-.2-.53-.62-.65-1.11-.27-.99.77-1.69,1.76-1.6,3.02.1,1.46.42,2.91.65,4.37.18,1.15-.73,1.92-1.79,1.47-.34-.14-.74-.56-.79-.91-.39-2.66-.7-5.33-1.03-8-.1-.81.37-1.26,1.06-1.47.68-.2,1.17.12,1.49.74.1.2.22.39.32.56Z"/>
    <path class="cls-2" d="m160.59,92c-1.37.97-2.73,1.09-4.13.93-1.67-.18-3.04-1.27-3.37-2.82-.28-1.28.19-2.47.89-3.52,1.06-1.6,2.58-2.66,4.37-3.26.87-.29,1.03-.69.86-1.53-.21-1.07-.29-2.18-.37-3.27-.07-.96.44-1.44,1.49-1.49.93-.04,1.31.37,1.36,1.36.16,3.03.26,6.07.53,9.09.16,1.84.62,3.65.87,5.48.04.34-.23.97-.47,1.03-.48.12-1.05,0-1.53-.16-.17-.06-.26-.48-.33-.75-.07-.27-.08-.56-.15-1.09Zm-.63-2.27c-.14-1.53-.27-2.83-.38-4.12-.05-.54-.22-.75-.84-.55-2.44.77-3.07,2.99-2.58,5.05.23.98,1.19,1.49,2.15,1.31.94-.17,1.68-1.03,1.65-1.69Z"/>
    <path class="cls-2" d="m240.47,84.69c.9-.55,1.68-1.17,2.56-1.51,1.67-.64,3.14.22,3.35,2.02.27,2.3.38,4.61.5,6.92.05.89-.66,1.42-1.63,1.38-.88-.04-1.22-.45-1.2-1.43.02-1.62.07-3.24.04-4.86,0-.63-.14-1.26-.31-1.87-.2-.72-.61-.85-1.24-.46-1.39.85-1.97,2.2-1.98,3.74,0,1.2.25,2.41.39,3.61.13,1.13-.09,1.57-.84,1.68-.85.12-1.52-.37-1.65-1.36-.31-2.35-.57-4.7-.82-7.06-.08-.73-.1-1.49.8-1.8.81-.28,1.34-.02,1.95.94.03.05.09.07.08.07Z"/>
    <path class="cls-2" d="m140.65,89.11c.1-.56.18-.85.21-1.14.1-1.27.18-2.54.27-3.81.07-.92.75-1.45,1.66-1.32.79.12,1.18.71.97,1.61-.75,3.25-1.28,6.54-1.31,9.88,0,1.23.21,2.47.42,3.69.24,1.41-.65,2.33-1.98,1.85-.35-.13-.7-.79-.72-1.23-.09-1.79-.1-3.59-.04-5.38.03-.74-.06-1.36-.52-1.94-.92-1.15-1.85-2.3-2.72-3.49-.35-.47-.69-1.03-.78-1.59-.06-.37.24-.94.56-1.2.47-.39,1.02-.14,1.36.32.64.85,1.23,1.75,1.84,2.63.21.3.41.6.78,1.12Z"/>
    <path class="cls-2" d="m192.08,88.05c0,2.5-1.54,4.71-3.84,5.55-2.12.77-4.37-.46-4.76-2.68-.56-3.18.56-5.78,2.91-7.9.17-.15.48-.23.72-.2,3.11.34,4.76,1.84,4.97,5.24Zm-6.09,1.43c.06.35.1.97.29,1.54.42,1.21,1.28,1.36,2.15.42,1.34-1.45,1.36-4.82.05-6.33-.45-.52-.83-.43-1.2.05-.93,1.2-1.22,2.59-1.29,4.32Z"/>
    <path class="cls-2" d="m235.56,88.01c.02,2.56-1.52,4.79-3.88,5.62-2.07.72-4.2-.47-4.66-2.63-.53-2.46.11-4.66,1.6-6.61.49-.63,1.2-1.45,1.86-1.51,1.2-.1,2.47.24,3.44,1.15,1.16,1.08,1.6,2.44,1.64,3.98Zm-2.56-.19c-.2-.55-.51-1.62-.97-2.63-.28-.61-.83-.6-1.23-.03-1.31,1.85-1.62,3.88-.94,6.02.32,1,1.13,1.13,1.89.43.94-.87,1.2-2,1.25-3.79Z"/>
    <path class="cls-2" d="m82.44,87.71c0,2.59-.98,4.3-2.87,5.46-2.56,1.57-5.31.29-5.79-2.68-.35-2.15.31-4.08,1.53-5.79.54-.75,1.37-1.74,2.13-1.8,1.52-.12,3.01.45,4,1.82.72,1,1.04,2.11,1,2.99Zm-6.06,1.73c.04.32,0,.86.2,1.27.25.5.67,1.2,1.1,1.26.42.06,1.07-.46,1.4-.89,1.08-1.42.94-4.47-.14-5.9-.43-.56-.81-.58-1.24-.04-.96,1.21-1.27,2.62-1.33,4.29Z"/>
    <path class="cls-2" d="m207.88,92.44c-1.06.4-2.01.78-2.97,1.12-.21.08-.46.09-.68.09-1.54.04-2.15-.67-1.8-2.16.37-1.57,1.56-2.53,2.71-3.5.64-.54,1.32-1.03,2-1.53.37-.27.72-.52.45-1.06-.27-.54-.63-1.1-1.31-.88-.64.2-1.28.55-1.81.96-.56.44-1.01.44-1.4-.09-.38-.5-.27-1.06.29-1.32,1.04-.48,2.09-1.01,3.2-1.26,1.48-.33,2.49.36,3.12,2.08.87,2.34,1.15,4.76.74,7.25-.13.77-.31,1.43-1.25,1.49-.89.06-1.2-.51-1.3-1.21Zm-.08-4.54c-1.22.76-2.34,1.58-2.93,2.92-.3.68.2,1.24.91,1.11,1.75-.32,2.78-2.28,2.02-4.03Z"/>
    <path class="cls-2" d="m114.69,92.47c-1,.38-1.94.79-2.92,1.08-.82.24-1.77.29-2.32-.47-.59-.81-.25-1.74.19-2.54.98-1.75,2.65-2.8,4.18-3.97.48-.37.89-.68.53-1.34-.35-.64-.88-.95-1.59-.63-.54.25-1.07.57-1.53.95-.5.41-.89.35-1.27-.08-.4-.45-.4-.96.1-1.27,1.3-.83,2.69-1.62,4.27-1.36.66.11,1.45.72,1.77,1.33,1.46,2.74,1.58,5.7.97,8.69-.07.34-.75.73-1.16.75-.35.02-.75-.45-1.09-.74-.11-.09-.11-.3-.14-.4Zm.02-4.46c-.99.3-2.65,1.82-2.97,2.72-.26.74.1,1.3.8,1.22,1.73-.19,2.88-2.28,2.17-3.94Z"/>
    <path class="cls-2" d="m69.96,81.93c0,.09,0,.17,0,.26.04,1.52.06,1.53,1.52,1.07.47-.15,1.07-.51,1.32.24.25.75-.26,1.07-.93,1.27-1.6.47-1.58.48-1.31,2.14.33,2.03.63,4.05.94,6.08.1.69-.32,1.3-.96,1.42-.72.14-1.5-.26-1.65-.93-.17-.73-.25-1.48-.34-2.23-.19-1.61-.37-3.22-.53-4.83-.06-.57-.26-.87-.89-.94-.31-.04-.58-.42-.87-.65.24-.28.42-.71.72-.81.58-.19.67-.52.64-1.04-.1-1.44.11-2.82.96-4.05.98-1.41,2.72-2.09,4.25-1.61.91.28,1.32.98,1,1.69-.24.53-.67.69-1.12.38-.49-.33-1.01-.82-1.53-.35-.48.43-.81,1.08-1.1,1.68-.16.34-.09.79-.12,1.2,0,0,.02,0,.03,0Z"/>
    <path class="cls-2" d="m121.6,88.68c-.38.02-.75.04-1.13.05-1.05.03-1.65-.66-1.49-1.72.21-1.37,2.42-3.85,3.76-4.2,1.39-.36,2.79.67,2.73,2.09-.02.35-.37.87-.68.97-.35.12-.94-.01-1.24-.26-.88-.75-1.37-.76-1.98.16-.4.6-.22.96.52,1.02.95.08,1.92.06,2.84.28,2.13.5,3.17,2.34,2.48,4.18-.86,2.28-4.74,3.43-6.69,1.97-1.03-.77-.89-2.8.3-3.31.38-.16,1.02,0,1.4.22.48.28.36.78.02,1.21-.39.49-.22.86.37.89.53.03,1.13.02,1.61-.18,1.21-.51,1.36-2.12.17-2.76-.87-.47-1.95-.55-2.94-.8-.02.07-.04.14-.05.2Z"/>
    <path class="cls-2" d="m64.61,85.6c-.36.5-.62,1.11-1.08,1.44-.83.61-1.79,1.05-2.68,1.6-.79.49-.69,2.19.17,2.53.27.11.76-.03,1-.23.66-.56,1.24-1.21,1.86-1.82.81-.79,1.52-1.02,1.85-.54.59.85-.16,1.36-.67,1.8-1.19,1.01-2.42,1.97-3.69,2.88-.96.69-1.88.45-2.47-.59-.29-.52-.48-1.11-.66-1.69-.17-.54-.18-1.11-.8-1.45-.15-.08-.16-.89.04-1.09.49-.48.55-1,.64-1.62.14-.96.38-1.93.71-2.84.46-1.28.89-1.45,2.25-1.27,1.17.16,2.15.68,2.9,1.57.26.31.37.75.64,1.3Zm-4.41,1.12c.1.08.2.16.29.24.52-.27,1.06-.51,1.55-.83.17-.11.35-.51.28-.6-.24-.33-.55-.65-.9-.84-.15-.08-.62.11-.69.28-.24.56-.36,1.17-.53,1.75Z"/>
    <path class="cls-2" d="m171.67,85.67c-.38.48-.69,1.08-1.17,1.44-.83.61-1.81,1.02-2.66,1.61-.28.2-.55.74-.48,1.04.11.52.44,1.04.81,1.44.1.11.72-.08.97-.29.65-.56,1.21-1.24,1.85-1.82.5-.45,1.11-1.16,1.77-.49.68.69-.05,1.3-.55,1.72-1.21,1.02-2.46,2.01-3.75,2.94-1,.72-1.91.47-2.52-.62-.25-.45-.43-.95-.57-1.44-.18-.62-.11-1.32-.89-1.67-.12-.05-.12-.88.09-1.08.5-.47.59-.99.66-1.61.11-.88.3-1.77.58-2.61.5-1.49.92-1.7,2.44-1.47,1.17.17,2.13.72,2.86,1.63.24.3.33.71.58,1.28Zm-3.28-1.22c-.32.29-.6.42-.66.61-.16.56-.23,1.14-.34,1.71.49-.16,1.01-.25,1.46-.49.25-.14.59-.63.52-.77-.2-.39-.6-.68-.98-1.07Z"/>
    <path class="cls-2" d="m51.51,85.03c.22-.23.35-.4.52-.53.47-.37.91-.83,1.45-1.07,1.69-.73,3.04.27,2.94,2.1-.04.64-.31,1.15-.98,1.24-.62.09-1-.24-1.19-.87-.25-.85-.74-.94-1.4-.35-.96.85-1.56,1.76-1.13,3.18.36,1.18.43,2.44.67,3.65.14.71.1,1.27-.71,1.5-.88.25-1.67-.09-1.84-.94-.24-1.13-.37-2.28-.52-3.42-.17-1.29-.33-2.58-.48-3.87-.04-.37-.07-.76,0-1.12.13-.71.57-1.14,1.33-1.1.67.04,1.17.31,1.18,1.1,0,.12.1.24.2.49Z"/>
    <path class="cls-2" d="m87.43,85.23c.07-.23.07-.53.22-.67.41-.4.84-.82,1.34-1.06.74-.37,1.58-.49,2.31.03.75.53.85,1.4.7,2.19-.08.4-.54.9-.95,1.04-.53.19-.95-.19-1.15-.78-.32-.95-.76-1.04-1.5-.36-.86.79-1.48,1.6-1.1,2.93.36,1.27.46,2.61.73,3.91.13.62.08,1.12-.56,1.35-.65.23-1.34.27-1.79-.39-.19-.27-.3-.63-.35-.96-.3-2.23-.59-4.47-.86-6.71-.04-.34-.06-.69-.03-1.04.06-.8.52-1.29,1.25-1.28.76.01,1.29.31,1.25,1.19,0,.08.05.16.08.24.14.12.28.24.41.36Z"/>
    <path class="cls-2" d="m196.71,85c.21-.19.42-.41.66-.6.4-.32.78-.71,1.24-.92.75-.34,1.59-.48,2.31.07.76.58.79,1.49.63,2.3-.07.37-.59.87-.95.91-.34.03-.87-.4-1.05-.76-.48-.96-.8-1.06-1.59-.35-.93.83-1.41,1.77-1.08,3.06.31,1.2.47,2.44.75,3.65.2.88,0,1.34-.76,1.54-.88.23-1.61-.11-1.8-.88-.13-.53-.22-1.08-.29-1.62-.25-2.21-.54-4.42-.69-6.64-.08-1.12,1.11-1.73,1.98-1.07.32.24.4.8.64,1.32Z"/>
    <path class="cls-2" d="m215.49,93.41c-2.14-.01-3.27-1.19-3.14-3.09.19-2.84,1.53-5.04,3.83-6.68.23-.17.49-.31.75-.43.63-.29,1.21-.25,1.58.4.33.58,0,1.39-.72,1.6-1.98.56-3.15,3.57-2.87,5.53.1.7.62,1.06,1.25.86.75-.24,1.45-.67,2.15-1.05.25-.13.42-.4.65-.57.5-.36,1.04-.42,1.49.05.5.52.15,1-.23,1.35-1.39,1.3-3.11,1.83-4.73,2.02Z"/>
    <path class="cls-2" d="m174.09,89.99c.15-2.71,1.69-4.99,4.26-6.63.53-.34,1.2-.56,1.65.02.23.29.22.87.13,1.27-.06.26-.46.52-.76.62-2.02.64-3,3.77-2.78,5.43.1.71.61,1.14,1.3.92.75-.24,1.45-.67,2.14-1.06.27-.15.46-.55.73-.59.46-.07,1.04-.09,1.4.14.51.33.22.88-.13,1.19-1.68,1.52-3.65,2.37-5.94,2-1.42-.23-2.04-1.24-2.01-3.3Z"/>
    <path class="cls-2" d="m221.96,88.82c0-1.21,0-2.43,0-3.64,0-.79.33-1.34,1.13-1.52,1.03-.23,1.51.2,1.52,1.26.03,2.28.1,4.56.16,6.84,0,.26.04.52.03.78-.05.88-.56,1.41-1.34,1.39-.76-.02-1.2-.48-1.22-1.38-.03-1.24,0-2.49,0-3.73h-.28Z"/>
    <path class="cls-2" d="m233.63,78.32c-.07,1.11-1.88,2.88-2.77,2.85-.29,0-.64-.26-.82-.51-.11-.16-.05-.58.09-.77.58-.75,1.18-1.48,1.85-2.15.21-.2.73-.31.97-.19.33.16.54.59.68.76Z"/>
    <path class="cls-2" d="m223.02,81.92c-.5-.03-1.12-.04-1.19-.83-.06-.62.63-1.13,1.47-1.1.63.02,1.26.09,1.32.91.05.64-.54,1.02-1.6,1.02Z"/>
  </g>
  <path class="cls-3" d="m185.3,34.98c.43.06,1.46-.41,1.46-.41,0,0,.82-.6,1.15-.77.33-.17.4-.2.77-.23.37-.03.53.15.89.14.36,0,.39.03.72-.14.33-.18.79-.91,1.21-1.21.42-.3,1.21-.56,1.67-.69.46-.13,1.67-.29,1.84-.29s1.31-.12,1.76,0,1.07.78,1.07.78c0,0,.47.56.6.99s.23,1.43.23,1.43c0,0,.12,1.23.29,1.53.17.3.51.65.55,1.18.04.53-.63,2.68-.63,2.68l-.83,2.02-.95,2.02-.83,1.79s-.9,1.73-1.07,2.22c-.17.49-.34,1.42-.35,2.13,0,.71.04,1.51.29,1.99.25.48.95,1.01,1.15,1.18.2.18.74.64,1.41.95.67.32,1.28.45,1.67.49.39.04,1.17.1,1.58-.14.41-.25.71-.89.98-1.56.27-.67.69-1.7.69-1.7,0,0,.4-.62.92-1.24.52-.62,1.44-1.41,1.44-1.41,0,0,.69-.75,1.07-1.24s.49-.73.63-1.15c.14-.43.27-1.43.23-2.36-.04-.94-.55-2.59-.55-2.59,0,0-.36-1.27-.86-1.96-.51-.69-1.21-1.24-1.32-1.38-.12-.14-1.32-1.16-1.7-1.67-.38-.51-.66-1.5-.66-1.5,0,0-.06-.56-.32-.89-.26-.34-.78-.61-.78-.61,0,0-.96-.57-1.41-.98-.45-.4-.78-.84-1.15-1.38-.37-.54-.58-.72-.75-1.41-.17-.69-.2-1.29-.11-2.13.08-.84.16-1.14.43-1.67.2-.59.45-.93.83-1.41.38-.48.82-1.02,1.04-1.35.22-.34.45-.64.63-1.18.18-.54.26-1.5.26-1.5l.14-1.93s.26-2.05.4-2.5.55-1.21.83-1.56c.28-.35,1.53-1.87,1.53-1.87l1.24-1.3,1.33-1.35.69-.58.92-1.18,1.12-1.67s.32-.53.58-.75c.26-.22.74-.62.78-.75.03-.13-.08-.08-.17-.43-.09-.35-.03-.86-.03-.86l.2-1.09.33-.92.57-.75s.42-.49.69-.63c.27-.14.75-.17,1.01-.17s.62-.06.92,0c.3.06,1.05.1,1.41.26.36.16,1.05.87,1.24,1.27s.4.98.4,1.47c0,.49-.1,2.32-.26,2.82-.16.5-.81,1.9-1.15,2.54-.35.64-.54.81-.84,1.21-.3.4-.66.86-.92,1.24-.26.38-.24.4-.58.84-.33.43-.47.52-.84.81-.37.28-.43.44-.52.69-.09.25.09,1.07-.06,1.44-.14.37-.36.67-.61.98-.24.31-.32.98-.32.98,0,0-.31.95-.57,1.3s-.73.43-.92.66c-.19.23.03.55.08.8.05.25.08.25.12.84s.04.84.06,1.28c.02.44.01.73-.17,1.08-.19.35-.65.83-.65.83,0,0-.36.27-.4.42-.03.15.06.43.17.55.11.12.43.07.91.27.47.2,1.03.45,1.44.86.41.42.83.8,1.15,1.18.32.38.82.81.91,1.22.19.61-.05,1.34.09,1.69.14.35.84.63.84.63l1.12.43s.51.25.95.59c.44.34.43.37.78.82.35.45.52.53.69.89.17.36.26,1.09.26,1.09v.84s-.11.47,0,1.21.16,1.14.37,1.56c.21.42,1.16,1.11,1.56,1.55s.67.66,1.04,1.15c.37.5.81,1.09.81,1.09l.52,1.04s.61,1.46.69,2.13c.08.67,0,1.96,0,1.96,0,0-.07,1.47-.29,1.96-.21.49-.71.97-1.26,1.29-.54.32-.68.24-1.34.49-.65.25-1.96,1.04-1.96,1.04,0,0-1.12.69-2.13,1.15s-2.2.97-2.76,1.38c-.57.41-1.19,1.06-1.5,1.67s-.14,1.17-.77,2.13c-.63.96-1.71,1.79-1.71,1.79,0,0-2.13,1.77-2.59,2.07s-.94.45-1.5.52c-.56.06-2.37.17-2.71,0-.34-.17-.57-.76-1.27-.98-.7-.22-1.91.16-2.48,0-.57-.16-2.3-1.5-2.3-1.5,0,0-1.39-1-2.13-1.43-.74-.42-3.23-1.45-3.23-1.45,0,0-2.61-.86-3.46-1.27-.85-.41-2.14-1.22-2.65-1.67-.5-.46-1.74-2.1-2.19-2.94-.45-.83-1.17-2.34-1.38-3.17-.21-.82-.69-4.09-.69-4.09,0,0-.28-2.4-.4-3.34-.13-.94-.64-2.39-.55-1.99.09.4-.52-1.94-.66-3.13-.14-1.2.23-2.11.4-2.53.17-.42.77-1.13,1.15-1.34.38-.2.91-.24,1.15-.18s1.15.94,1.15.94l1.61,1.9s.91,1.06,1.34,1.12Zm39.57-6.79c-.39.35-.96.85-1.12,1.46-.16.62,0,1.54,0,1.54,0,0,.24.96.58,1.34.34.37.61.52.98.52.37,0,.57-.31,1.09-.69.52-.38,1.1-.78,1.5-1.16.4-.38.61-.75.63-.91.03-.16-.18-.58-.4-1.15-.23-.57-.62-1.13-.98-1.33-.36-.2-.86-.4-1.27-.29-.4.11-.62.32-1.01.67Zm4.41-3.09c-.36.46-1.04,1.84-1.04,1.84,0,0-.39.89.29,1.67.68.78,1.32.82,1.72.73s1.5-.25,1.83-.51c.34-.26.65-1.4.94-1.71.28-.31,1.72-1.16,1.72-1.16l2.14-1.05,2.65-1.4s1.32-.86,1.96-1.46c.64-.59,1.18-1.35,1.43-1.84.25-.49.46-1.55.18-2.36-.28-.81-.35-1.09-1.21-2.05-.86-.96-.97-.97-1.31-1.15-.34-.18-.45-.24-1.13-.31-.68-.07-.95-.1-1.34-.04-.39.06-.6.09-1.01.26-.41.17-.92.76-.92.76,0,0-1.34,1.74-1.67,2.24-.33.5-.98,2.03-.98,2.03l-1.05,1.64s-.65,1.11-1.31,1.8c-.65.69-1.54,1.61-1.9,2.07Zm.65,17.68q.03.28.17.75c.14.47.34.88.58,1.04.24.16,1.3.07,1.61,0,.31-.07.9-.48,1.27-.63.36-.16,1.11-.5,1.73-.63s1.29.06,1.84,0c.55-.06.91-.2,1.44-.47s1.03-.53,1.1-.85c.07-.32-.22-.46-.23-.81,0-.35.06-.63.23-.69.17-.06.06.04.52.17.45.14.75.17,1.21.06.47-.11,1.08-.53,1.32-1.04.24-.51.22-.97.22-1.55,0-.59.05-.74-.22-1.38-.27-.64-.96-1.01-1.5-1.32-.54-.31-1.32-.59-1.9-.58-.58.02-1.11.1-1.55.34-.44.25-1.35,1.03-1.78,1.44s-.64.88-1.04,1.44c-.39.56-.77,1.11-1.21,1.38-.44.27-.67.23-1.21.4-.54.17-.63.23-1.04.58-.41.35-1,1.19-1.27,1.55-.26.36-.32.53-.29.81Zm-10.72-18.6c.43-.1,1.49-.79,1.73-1.04.24-.24,1.06-1.73,1.06-1.73,0,0,.71-1.25.72-1.38s.03-.18,0-.37c-.03-.18-.24-.33-.24-.33,0,0-.34-.29.22-.67s.98-.15.98-.15l.48.25s.21.17,1.15-.52c.94-.69,1.58-1.15,1.58-1.15,0,0,.73-.48,1.3-1.21s.63-.66.81-1.04.06-.68.29-1.27c.23-.58.37-.62.63-.69.26-.07.23.31,1.15,0,.92-.31,1.66-.92,2.25-1.61.58-.7,1.07-.98,1.5-1.79.43-.81.61-1.73.52-2.53-.09-.81-.69-1.79-.69-1.79,0,0-.27-.48-.64-.73-.45-.31-1.21-.29-1.61-.24-.4.04-.89.14-1.69.4-.33.19-1.85,1.41-2.12,1.64-.27.23-1.31,1.24-1.31,1.24l-1.9,1.79-1.44,1.61-1.38,1.38s-.79.93-1.07,1.21c-.28.28-.74.7-1.14,1.14-.39.43-.58.92-1.07,1.46-.5.54-1.65,1.35-1.65,1.35,0,0-.85.67-1.29,1.24-.44.57-.51.81-.69,1.44-.18.63-.12,1.78,0,2.13.12.35.52.94.81,1.28.28.34.77.59,1.09.68.32.08,1.67,0,1.67,0m-40.72-8.92c-.06.49-.23,1.78-.23,1.78l-.12,1.42.08,1.74s.11,1.21.23,1.8c.12.59.04.4.31,1.23.27.83.29,1,.5,1.4.21.4.7.88,1.09.98.39.1.56.17,1.09.19s.68,0,1.15-.32c.48-.33.56-.28.8-.86s.12-.67.08-1.06c-.04-.4-.48-1.89-.48-1.89,0,0-.36-.96-.37-1.36,0-.4-.02-.54.15-.79.17-.25.35-.25.67-.56.32-.31.3-.21.67-.77.38-.56.2-.25.36-.79.05-.2.08-.52,0-1.12-.08-.6-.11-.51-.27-.88-.16-.37-.4-.76-.65-1.07-.26-.32-.58-.74-.81-.98-.23-.24-.33-.39-.69-.72-.26-.24-.45-.41-.69-.52-.48-.22-.67-.3-.78-.33-.1-.02-.24-.04-.61-.03-.13,0-.36.09-.68.51-.32.42-.47.98-.55,1.32s-.21,1.19-.27,1.68Z"/>
</svg>