<?xml version="1.0" encoding="UTF-8"?>
<svg id="Capa_2" data-name="Capa 2" xmlns="http://www.w3.org/2000/svg" viewBox="0 0 89.71 85.63">
  <defs>
    <style>
      .cls-1 {
        fill: #742735;
      }
    </style>
  </defs>
  <g id="Capa_3" data-name="Capa 3">
    <path class="cls-1" d="m9.87,48.28l2.02-.56,1.59-1.06,1.06-.32,1.23.2,1-.2,1.67-1.67,2.31-.95s2.31-.4,2.54-.4h2.43l1.47,1.07.83,1.36.32,1.98s.56,2.95.4,2.11c-.16-.84.75,1.63.75,1.63l-.87,3.7-1.15,2.78-1.31,2.78-1.15,2.47-1.47,3.06-.48,2.94.4,2.75s1.31,1.39,1.59,1.63c.28.24,1.83,1.23,1.95,1.31.12.08,2.31.68,2.31.68l2.19-.2,1.35-2.15.96-2.35s1.19-1.59,1.27-1.71c.08-.12,1.99-1.95,1.99-1.95l1.47-1.71.88-1.59.32-3.26-.76-3.58-1.19-2.71s-1.67-1.71-1.83-1.91c-.16-.2-2.35-2.31-2.35-2.31l-.91-2.07-.44-1.23-1.07-.84-1.95-1.35-1.59-1.91-1.03-1.95-.16-2.94.6-2.31,1.15-1.95,1.43-1.87.87-1.63.36-2.07.2-2.66.56-3.46,1.15-2.15,2.11-2.58,1.71-1.79,1.83-1.87.95-.79,1.27-1.63,1.55-2.31.79-1.03,1.07-1.03-.24-.6-.04-1.19.28-1.51.45-1.27.78-1.03.96-.88,1.39-.24h1.27l1.95.36,1.71,1.75.56,2.03-.36,3.9-1.59,3.5-1.15,1.67-1.27,1.71-.79,1.15-1.15,1.11-.71.95-.08,1.99-.84,1.35-.44,1.35-.79,1.79-1.27.92.04,1.15.24,1.11-.04,2.11-.12,1.15-.8.88-.79.79.32.91,1.31.28,1.99,1.19,1.59,1.63,1.23,1.43.16,2.58,1.15.87,1.55.6,1.31.82,1.07,1.13.96,1.23.36,1.51v2.82l.52,2.15,2.15,2.15,1.43,1.59,1.11,1.51.71,1.43s.84,2.02.96,2.94c.12.92,0,2.71,0,2.71,0,0-.21,2.25-.4,2.7-.19.45-1.32,1.51-1.73,1.79-.42.27-1.85.68-1.85.68l-2.7,1.43-2.94,1.59-3.82,1.91s-1.65,1.47-2.07,2.31-.19,1.62-1.06,2.94c-.87,1.32-2.36,2.47-2.36,2.47l-3.58,2.86-2.07.71h-3.74s-.79-1.04-1.75-1.35c-.96-.31-3.42,0-3.42,0l-3.18-2.07-2.94-1.97-4.46-2.01-4.77-1.75-3.66-2.31-3.02-4.06-1.91-4.38-.96-5.65-.56-4.61-.87-3.9-.79-3.18.56-3.5,1.59-1.85,1.59-.24,1.59,1.29,2.23,2.62,1.86,1.54Zm54.71-9.26l-1.59,1.91v2.13l.8,1.85,1.35.71,1.51-.95,2.07-1.61.87-1.26-.56-1.59-1.35-1.83-1.75-.4-1.35,1.04Zm6.04-4.37l-1.43,2.54s-.41.63.4,2.31c.81,1.68.15.68,2.34.88,2.2.19,2.57-.58,2.57-.58l1.29-2.37,2.37-1.61,2.96-1.45,3.66-1.93,2.7-2.01,2.23-2.86v-2.94l-1.75-2.7-1.83-1.67-1.46-.47-1.76.07-1.48.23-1.27,1.04-2.31,3.1-1.35,2.8-1.46,2.26-1.81,2.49-2.62,2.86Zm.9,24.42l.4,1.03.64,1.43h2.23l1.75-.88,2.39-.87h2.54l1.91-.72,1.59-1.11-.32-1.12.32-.95.71.24,1.67.08,1.83-1.43.09-2.15-.09-1.91-2.07-1.83-2.62-.79-2.15.48-2.46,1.99-1.43,1.99-1.67,1.91-1.67.56-1.43.8-1.75,2.15-.4,1.11Zm-14.8-25.69l2.39-1.43,1.47-2.39,1-1.91v-.5s-.32-.46-.32-.46c0,0-.46-.4.31-.92s1.35-.21,1.35-.21l.66.34,1.59-.72,2.19-1.59,1.79-1.67,1.11-1.43.4-1.75.87-.95h1.59l3.1-2.23,2.07-2.47.72-3.5-.96-2.47-1.19-1.35h-1.91l-2.86.72-1.83,1.75-2.39,2.07-2.62,2.47-1.99,2.23-1.91,1.91s-1.09,1.29-1.47,1.67c-.39.38-1.57,1.57-1.57,1.57,0,0-.78,1.45-1.48,2.01-.71.56-2.28,1.86-2.28,1.86l-1.79,1.72-.95,1.99v2.94l1.11,1.77,1.51.93h2.31M.48,21.04l-.32,2.46-.16,1.96.11,2.4.31,2.48.42,1.7.69,1.93,1.51,1.35,1.51.27,1.48-.5,1.06-1.17s.18-.84.12-1.39c-.06-.55-.65-2.59-.65-2.59,0,0-.36-1.39-.37-1.94,0-.55-.03-.75.21-1.08.24-.34.93-.77.93-.77l.93-1.06.5-1.09v-1.54l-.37-1.21-.9-1.48-1.11-1.35-.96-.99-.9-.6-1.25-.4h-1.01l-.66.48-.48,1.51-.66,2.63Z"/>
  </g>
</svg>